<?xml version="1.0" standalone="no"?>
<!DOCTYPE svg PUBLIC "-//W3C//DTD SVG 20010904//EN"
 "http://www.w3.org/TR/2001/REC-SVG-20010904/DTD/svg10.dtd">
<svg version="1.0" xmlns="http://www.w3.org/2000/svg"
 width="292.000000pt" height="172.000000pt" viewBox="0 0 292.000000 172.000000"
 preserveAspectRatio="xMidYMid meet">
<g transform="translate(0.000000,172.000000) scale(0.100000,-0.100000)"
fill="#ffffff" stroke="none">
<path d="M1288 1700 c-218 -37 -450 -200 -569 -400 -50 -85 -94 -208 -110
-310 -7 -41 -13 -76 -13 -77 -1 -1 -60 -9 -131 -17 -141 -17 -253 -42 -356
-81 -96 -37 -105 -45 -93 -86 11 -39 2 -38 154 -19 205 25 570 1 1005 -65 613
-93 802 -110 1085 -101 264 8 448 43 597 113 56 27 59 32 43 80 -11 29 -11 29
-73 15 -41 -10 -134 -15 -280 -17 -119 -1 -218 -6 -220 -11 -3 -12 47 -17 206
-19 78 -2 137 1 137 7 0 5 8 4 19 -1 10 -6 20 -9 22 -7 2 3 37 7 77 10 71 6
72 6 62 -14 -6 -11 -17 -20 -25 -20 -8 0 -15 -5 -15 -11 0 -5 -4 -8 -9 -4 -5
3 -13 0 -16 -6 -4 -5 -13 -8 -20 -5 -7 2 -21 -1 -31 -8 -28 -19 -141 -43 -284
-61 -148 -19 -501 -14 -700 10 -232 28 -411 55 -429 65 -18 9 -22 9 -16 0 5
-8 2 -10 -11 -7 -11 3 -44 8 -74 12 -30 3 -73 10 -95 15 -46 12 -335 50 -410
55 -288 19 -506 19 -566 0 -16 -5 -19 -4 -14 5 6 9 4 11 -5 5 -22 -14 -58 -14
-64 0 -3 8 12 21 40 35 57 26 219 70 260 70 17 0 44 4 60 9 16 6 52 12 79 15
96 8 120 26 129 96 7 50 40 172 52 192 5 7 10 21 11 32 4 24 35 76 46 76 4 0
6 4 2 10 -3 5 6 22 20 37 13 15 45 55 70 87 25 33 45 56 45 52 0 -3 13 7 30
24 16 16 32 30 36 30 3 0 24 14 45 31 21 17 39 28 39 25 0 -3 21 8 47 24 26
17 73 37 105 46 32 9 58 20 58 24 0 4 23 10 50 14 34 5 50 11 50 21 0 8 -1 14
-2 14 -2 -1 -24 -5 -50 -9z"/>
<path d="M1584 1698 c-8 -13 0 -19 33 -24 57 -7 93 -16 93 -24 0 -4 14 -10 31
-14 41 -8 151 -62 178 -87 12 -11 21 -17 21 -14 0 19 174 -156 203 -205 13
-22 27 -37 32 -33 4 5 6 1 3 -7 -3 -8 3 -26 12 -40 58 -82 95 -228 99 -380 1
-73 7 -129 13 -135 8 -7 9 -5 5 7 -3 10 -2 20 3 23 16 10 12 178 -6 263 -50
241 -201 452 -409 571 -118 68 -296 124 -311 99z"/>
<path d="M1410 1540 c-8 -5 -46 -14 -85 -21 -38 -6 -77 -16 -85 -20 -8 -4 -36
-15 -62 -25 -26 -9 -53 -23 -59 -30 -6 -8 -15 -14 -20 -14 -22 0 -94 -58 -138
-111 -27 -32 -50 -57 -52 -56 -2 1 -3 0 -2 -1 1 -2 -13 -27 -32 -56 -18 -29
-39 -72 -45 -97 -7 -24 -16 -49 -21 -55 -15 -18 -22 -119 -11 -141 12 -23 48
-32 137 -38 33 -2 85 -6 115 -9 30 -2 83 -7 118 -10 90 -8 295 -36 387 -53 42
-7 85 -12 123 -12 18 -1 31 -5 28 -9 -3 -5 14 -9 37 -9 41 0 281 -30 302 -37
6 -2 24 2 40 8 28 12 24 13 -65 25 -52 7 -120 17 -150 22 -317 50 -694 97
-891 111 -193 13 -180 3 -151 114 35 131 94 228 199 323 188 173 465 217 698
111 237 -108 384 -331 385 -587 0 -45 4 -84 9 -88 14 -8 19 22 18 88 -1 31 2
57 6 57 5 0 5 5 1 12 -7 10 -18 57 -28 113 -2 11 -15 46 -29 77 -14 31 -22 60
-19 64 4 4 1 3 -7 -1 -11 -6 -13 -4 -8 9 4 10 3 15 -3 11 -6 -3 -10 1 -10 9 0
9 -4 16 -8 16 -5 0 -14 11 -20 25 -17 37 -93 116 -105 108 -6 -4 -7 -1 -3 6 5
8 0 14 -13 18 -12 3 -21 9 -21 13 0 4 -13 13 -30 20 -17 7 -27 17 -23 24 3 6
3 8 -2 4 -4 -4 -37 8 -74 26 -85 43 -124 53 -235 62 -39 3 -72 7 -75 8 -4 2
-13 0 -21 -4z"/>
<path d="M640 587 c0 -14 63 -143 93 -189 98 -154 280 -295 453 -352 70 -23
150 -35 166 -25 10 7 10 9 -2 9 -9 0 -58 14 -110 30 -96 31 -159 59 -194 89
-11 9 -16 10 -12 3 13 -21 -65 36 -137 100 -37 34 -66 67 -63 74 3 8 0 11 -8
8 -8 -3 -17 0 -22 7 -5 8 -3 10 7 5 8 -4 5 0 -6 9 -11 9 -20 20 -20 25 0 5 -7
15 -15 22 -12 11 -12 10 0 -7 14 -19 14 -19 -3 -6 -10 8 -16 20 -13 27 3 7 2
14 -2 16 -7 3 -52 82 -52 91 0 10 67 12 109 3 65 -13 110 -48 102 -81 -2 -5 0
-7 4 -4 3 4 33 -22 67 -57 33 -35 69 -66 79 -69 11 -4 16 -11 13 -17 -4 -6 -2
-8 4 -4 5 3 24 -5 40 -19 16 -14 36 -25 44 -25 8 0 29 -7 46 -15 102 -51 300
-64 432 -28 84 23 174 69 238 121 41 32 49 35 131 40 60 3 90 1 95 -7 4 -6 2
-11 -3 -11 -6 0 -11 -9 -11 -19 0 -11 -3 -21 -7 -23 -5 -1 -23 -20 -40 -41
-18 -21 -33 -34 -33 -30 -1 4 -15 -8 -32 -27 -17 -19 -27 -29 -23 -21 6 10 -2
8 -24 -5 -17 -10 -31 -22 -31 -26 0 -4 -6 -8 -14 -8 -8 0 -21 -6 -28 -13 -16
-16 -89 -46 -188 -78 -41 -13 -77 -27 -78 -32 -2 -4 -9 -4 -15 -1 -8 5 -9 3
-2 -4 12 -14 111 5 195 37 136 51 290 168 385 291 45 58 45 58 -97 52 -142 -5
-142 -5 -198 -50 -116 -95 -293 -150 -442 -138 -220 18 -396 127 -523 323 0 1
-50 12 -111 23 -60 12 -117 23 -126 26 -10 3 -18 3 -18 1z"/>
<path d="M2167 162 c-26 -28 -21 -69 8 -88 53 -35 106 27 71 81 -20 30 -56 33
-79 7z m73 -22 c8 -14 8 -26 0 -40 -19 -35 -80 -20 -80 20 0 40 61 55 80 20z"/>
<path d="M2187 143 c-4 -3 -7 -14 -7 -24 0 -22 37 -22 45 0 8 20 -23 40 -38
24z"/>
</g>
</svg>
