<svg version="1.0" xmlns="http://www.w3.org/2000/svg" width="292.000000pt" height="172.000000pt" viewBox="0 0 292.000000 172.000000" preserveAspectRatio="xMidYMid meet" style="width: 583.2px; height: auto;"> <g transform="translate(0.000000,172.000000) scale(0.100000,-0.100000)" fill="#000000" stroke="none" class=""> <path d="M1234 1690 c-155 -42 -267 -110 -394 -239 -129 -130 -196 -262 -227 -440 -9 -53 -17 -97 -18 -98 0 -1 -37 -5 -80 -8 -159 -13 -328 -54 -447 -107 l-66 -30 15 -43 c14 -41 16 -43 41 -34 50 16 106 21 302 24 262 4 346 -4 1065 -109 171 -25 291 -40 440 -56 134 -14 587 -5 684 14 136 26 245 60 332 101 l37 18 -15 42 -14 42 -72 -13 c-95 -18 -299 -27 -411 -17 l-89 8 2 105 c3 178 -37 322 -133 473 -72 113 -210 248 -237 231 -7 -4 -9 -3 -5 4 8 13 -82 67 -164 100 -79 31 -167 52 -219 52 -41 0 -44 -1 -26 -14 24 -16 77 -27 69 -14 -3 5 11 2 31 -6 21 -9 53 -16 71 -16 19 0 34 -3 34 -7 0 -5 29 -19 65 -32 35 -14 62 -28 59 -33 -3 -4 2 -8 11 -8 9 0 27 -11 40 -24 13 -13 26 -21 29 -18 3 3 6 1 6 -5 0 -6 8 -10 18 -9 12 1 17 -6 16 -21 -1 -13 2 -21 6 -18 11 7 72 -34 65 -44 -3 -5 0 -13 6 -17 8 -4 9 -3 5 4 -4 7 -2 12 3 12 6 0 11 -7 11 -16 0 -9 5 -12 11 -8 7 4 10 2 7 -6 -2 -7 13 -31 34 -54 21 -22 36 -47 33 -54 -3 -8 0 -10 7 -6 7 5 9 2 5 -8 -3 -9 2 -23 13 -33 18 -16 56 -86 51 -94 -2 -2 2 -7 8 -10 16 -10 24 -71 9 -71 -9 0 -10 -3 -2 -8 18 -12 35 -78 28 -107 -5 -20 -4 -26 5 -21 8 5 10 -21 8 -99 -3 -104 6 -137 32 -121 5 4 13 1 17 -5 5 -8 3 -9 -7 -4 -12 8 -12 6 0 -8 15 -18 26 -23 16 -7 -9 15 36 18 69 4 14 -5 17 -4 12 4 -5 8 2 12 21 12 16 0 23 -4 16 -8 -13 -8 117 -7 152 2 13 3 27 1 31 -6 4 -6 3 -8 -2 -5 -6 3 -16 1 -24 -4 -11 -7 -9 -8 8 -6 13 2 27 9 31 15 4 6 12 8 20 3 8 -5 26 -5 42 -1 15 5 30 6 33 3 2 -3 10 -2 16 2 18 11 101 12 107 2 7 -12 -47 -58 -59 -51 -5 3 -25 -4 -44 -15 -42 -25 -51 -26 -34 -6 10 12 10 15 -4 15 -14 0 -19 -9 -18 -30 0 -3 -9 -6 -21 -7 -46 -4 -87 -16 -87 -25 0 -5 -13 -7 -30 -3 -19 4 -36 2 -45 -5 -8 -7 -15 -9 -15 -5 0 4 -8 1 -17 -6 -9 -8 -14 -9 -10 -3 4 7 -13 9 -54 7 -48 -4 -60 -2 -54 9 3 7 -2 4 -12 -7 -17 -20 -29 -21 -205 -21 -152 -1 -185 2 -181 13 4 9 0 11 -11 7 -9 -3 -13 -10 -10 -15 8 -14 -12 -10 -25 4 -6 8 -7 18 -3 23 4 4 0 3 -9 -4 -19 -14 -135 -10 -289 11 -25 3 -89 11 -142 18 -54 6 -98 15 -98 20 0 4 -15 3 -32 -2 -43 -12 -45 -12 -22 6 14 11 15 14 2 9 -9 -3 -30 2 -47 11 -21 10 -30 12 -29 4 2 -8 -12 -13 -39 -14 -23 0 -40 2 -38 5 4 6 -16 9 -100 13 -16 1 -32 5 -35 8 -3 4 -34 10 -70 13 -36 4 -78 10 -95 13 -16 4 -36 6 -44 4 -21 -4 -62 9 -57 17 11 18 -635 16 -679 -2 l-20 -9 20 17 c20 17 20 17 -3 6 -12 -6 -27 -8 -32 -5 -5 3 -11 1 -15 -5 -9 -15 -32 -12 -39 6 -5 12 -1 14 17 10 12 -3 16 -3 10 0 -18 8 -16 27 2 21 8 -4 17 -1 21 5 5 7 2 8 -6 3 -9 -5 -11 -4 -6 3 4 7 18 12 32 12 14 0 22 4 19 10 -3 5 0 7 9 4 8 -3 25 0 38 7 13 7 39 16 58 20 19 4 46 11 60 15 14 4 44 8 67 8 24 0 43 3 43 6 0 3 18 5 39 5 22 0 38 3 35 6 -2 4 3 10 12 13 10 4 13 2 8 -6 -4 -7 -3 -8 5 -4 18 11 61 15 55 4 -3 -4 10 0 28 11 18 10 32 24 30 31 -1 6 2 9 8 5 5 -3 10 -3 11 2 0 4 2 34 4 65 2 32 11 72 20 89 11 20 12 29 4 23 -9 -5 -10 -2 -6 10 4 10 7 22 7 27 0 6 5 7 12 3 8 -5 9 0 5 15 -3 15 0 24 9 28 8 3 13 12 10 19 -3 8 -2 14 3 14 5 0 14 13 21 30 7 16 16 28 20 25 5 -3 6 3 4 12 -2 10 8 32 23 50 57 64 68 78 68 88 0 6 10 9 22 9 13 -1 20 3 17 11 -6 15 51 65 74 65 13 0 14 2 4 9 -10 6 -5 11 17 21 17 6 36 18 42 26 14 17 33 19 23 2 -6 -9 -3 -9 9 0 9 8 20 11 25 8 5 -3 9 1 9 9 0 10 -5 11 -19 4 -11 -6 -18 -6 -18 0 0 5 14 13 32 16 18 4 39 11 48 16 45 25 112 49 137 49 32 1 142 26 151 34 13 14 -109 3 -174 -14z m971 -428 c-3 -3 -11 0 -18 7 -9 10 -8 11 6 5 10 -3 15 -9 12 -12z m-1442 -539 c-7 -2 -19 -2 -25 0 -7 3 -2 5 12 5 14 0 19 -2 13 -5z m-666 -9 c-3 -3 -12 -4 -19 -1 -8 3 -5 6 6 6 11 1 17 -2 13 -5z m1223 -64 c8 -5 11 -10 5 -10 -5 0 -17 5 -25 10 -8 5 -10 10 -5 10 6 0 17 -5 25 -10z" class=""></path>  <path d="M1475 1550 c6 -10 4 -12 -8 -7 -11 4 -14 2 -10 -9 7 -20 -7 -18 -23 4 -12 15 -13 15 -8 0 4 -13 1 -15 -15 -11 -11 3 -29 2 -38 -2 -10 -5 -31 -9 -48 -10 -38 -3 -63 -9 -71 -18 -4 -4 -15 -7 -25 -7 -26 0 -69 -22 -63 -31 7 -12 -3 -11 -25 0 -13 7 -18 6 -18 -4 0 -7 7 -11 16 -9 9 3 -8 -7 -36 -21 -29 -14 -53 -30 -53 -35 0 -5 -6 -7 -13 -4 -7 2 -24 -7 -36 -20 -13 -14 -28 -23 -33 -19 -6 3 -5 -5 2 -17 7 -13 8 -20 2 -16 -11 7 -62 -53 -62 -73 0 -7 -4 -9 -10 -6 -6 4 -7 -1 -3 -11 5 -13 3 -15 -8 -9 -8 4 -11 5 -7 0 4 -4 2 -17 -4 -29 -7 -11 -11 -24 -10 -29 1 -4 -3 -6 -9 -5 -6 2 -17 -15 -25 -37 -8 -22 -17 -47 -20 -55 -4 -8 -7 -27 -8 -42 0 -14 -4 -30 -8 -34 -13 -12 -9 -72 5 -81 22 -14 77 -31 77 -23 0 9 83 5 99 -4 6 -4 16 -4 21 -1 6 3 10 0 10 -7 0 -9 2 -10 8 -2 9 15 79 9 100 -8 13 -11 14 -11 8 1 -6 10 -4 12 10 8 38 -11 80 -18 139 -22 98 -7 179 -16 195 -22 8 -3 24 -6 35 -7 11 -1 26 -5 34 -10 10 -6 12 -6 7 2 -4 7 -1 12 9 12 9 0 14 -4 11 -9 -3 -5 13 -9 37 -9 64 0 199 -21 213 -33 8 -7 14 -7 18 0 5 7 15 7 33 0 14 -5 47 -12 72 -14 67 -6 134 -16 142 -20 3 -3 16 5 28 16 12 11 26 17 33 13 6 -4 8 -3 4 4 -3 6 -2 13 3 16 14 9 6 41 -10 39 -11 -2 -14 14 -14 75 -1 99 -8 155 -19 164 -5 3 -11 12 -12 20 -5 29 -24 68 -33 68 -6 0 -8 7 -5 15 4 8 9 13 13 10 4 -2 8 2 8 10 0 12 -4 12 -20 -2 -19 -18 -20 -17 -7 7 13 24 12 24 -5 10 -17 -14 -17 -13 -10 9 4 14 3 21 -2 18 -10 -6 -49 52 -45 66 1 4 -14 17 -33 28 -19 12 -36 27 -36 35 -1 8 -2 19 -3 26 -1 15 -23 22 -30 9 -4 -6 -16 -2 -31 11 -13 12 -22 25 -18 31 3 5 -5 3 -18 -4 -22 -11 -23 -11 -11 4 12 14 11 16 -7 12 -12 -2 -21 1 -21 6 0 6 -4 7 -10 4 -5 -3 -10 -2 -10 3 0 6 -12 13 -27 17 -16 3 -35 13 -44 21 -9 8 -20 14 -25 13 -5 -1 -13 0 -19 1 -5 1 -30 2 -55 1 -35 0 -40 2 -25 9 16 7 17 9 3 9 -9 1 -25 4 -35 7 -15 5 -15 4 -3 -5 8 -6 10 -11 5 -11 -6 0 -16 5 -23 12 -9 9 -12 9 -12 0 0 -7 -4 -12 -10 -12 -5 0 -7 6 -4 14 3 8 0 17 -7 22 -8 5 -10 3 -4 -6z m150 -67 c109 -26 202 -80 290 -168 93 -92 145 -181 175 -301 20 -77 28 -238 12 -248 -4 -2 -71 4 -147 15 -77 11 -150 18 -162 16 -12 -2 -20 -1 -18 3 2 3 -87 19 -198 34 -111 15 -227 32 -257 36 -86 14 -377 40 -447 40 l-64 0 6 38 c44 259 212 451 470 534 89 29 227 29 340 1z m282 -108 c0 -8 -4 -12 -9 -9 -5 3 -6 10 -3 15 9 13 12 11 12 -6z m-877 2 c0 -2 -12 -14 -27 -28 l-28 -24 24 28 c23 25 31 32 31 24z m950 -83 c0 -2 -9 0 -20 6 -11 6 -20 13 -20 16 0 2 9 0 20 -6 11 -6 20 -13 20 -16z m170 -499 c0 -12 -19 -12 -23 0 -4 9 -1 12 9 8 7 -3 14 -7 14 -8z" class=""></path>           <path d="M2858 703 c7 -3 16 -2 19 1 4 3 -2 6 -13 5 -11 0 -14 -3 -6 -6z"></path> <path d="M640 583 c0 -18 78 -167 114 -216 84 -118 228 -237 352 -292 112 -50 282 -82 298 -57 3 5 -12 9 -33 10 -22 1 -51 6 -65 12 -14 5 -26 6 -26 3 0 -4 -5 -2 -12 5 -7 7 -23 12 -35 12 -13 0 -35 7 -48 16 -14 9 -33 13 -44 9 -16 -5 -19 -2 -16 15 2 11 0 18 -6 15 -5 -4 -6 -12 -2 -18 3 -7 -3 -3 -15 7 -12 11 -22 16 -22 12 0 -3 -11 1 -25 10 -14 9 -23 20 -20 24 3 5 0 12 -6 16 -8 4 -9 3 -5 -4 11 -18 -10 -14 -24 3 -7 9 -19 14 -26 11 -18 -7 -32 15 -28 42 3 19 2 21 -10 10 -8 -7 -11 -17 -8 -23 3 -6 1 -6 -4 -2 -5 5 -9 14 -9 20 0 7 -4 12 -10 12 -19 0 -36 17 -31 31 3 9 0 11 -12 7 -15 -6 -16 -5 -2 12 8 10 10 16 3 12 -6 -4 -14 -3 -18 3 -4 6 -11 8 -16 5 -5 -3 -6 1 -3 9 3 9 11 13 18 9 23 -15 36 -12 26 7 -5 9 -6 20 -3 24 3 3 1 6 -6 6 -8 0 -10 -8 -5 -22 6 -22 6 -22 -12 -7 -28 24 -48 34 -40 21 4 -7 2 -12 -3 -12 -6 0 -12 6 -13 13 0 6 -2 17 -2 22 -3 19 -17 35 -27 30 -5 -4 -9 -2 -9 4 0 5 6 12 13 15 6 3 1 3 -12 0 -19 -5 -23 -3 -18 10 3 8 0 22 -8 30 -20 19 -32 72 -15 61 10 -6 12 -4 7 8 -8 21 11 22 56 4 18 -7 47 -12 65 -11 27 1 38 -5 58 -32 15 -19 23 -38 18 -45 -4 -7 -3 -9 4 -6 5 4 22 -7 37 -24 21 -25 23 -34 13 -41 -9 -7 -8 -8 5 -4 12 4 29 -4 50 -24 18 -16 38 -30 46 -30 7 0 11 -6 8 -13 -3 -8 0 -14 6 -14 17 -2 134 -52 122 -53 -20 -1 58 -30 82 -30 13 0 32 -4 42 -9 35 -19 288 -10 276 9 -3 5 4 6 15 3 11 -3 32 2 46 12 14 9 35 15 45 12 12 -3 17 -1 12 6 -4 6 2 8 16 4 18 -4 21 -2 16 11 -3 9 -3 13 1 10 4 -4 16 -2 28 4 11 7 25 11 29 10 5 -1 5 3 1 9 -5 9 -2 10 9 6 10 -4 16 -2 14 5 -1 6 8 17 20 23 13 7 20 15 15 20 -4 4 0 6 10 2 10 -4 18 1 21 13 4 17 15 19 84 19 44 0 84 1 89 2 5 1 22 1 37 0 25 -1 27 -3 16 -24 -17 -31 -67 -88 -76 -85 -4 2 -18 -12 -30 -31 -13 -19 -23 -30 -23 -25 0 5 -7 1 -15 -10 -8 -10 -19 -15 -26 -10 -7 4 -10 3 -6 -2 3 -6 -4 -16 -16 -23 -18 -11 -20 -11 -9 0 15 16 16 29 1 29 -5 0 -7 -5 -4 -10 3 -6 -1 -13 -9 -16 -9 -3 -14 -10 -11 -15 5 -7 -27 -30 -45 -33 -3 -1 -4 -5 -2 -9 1 -5 -2 -6 -7 -3 -13 9 -42 -4 -35 -16 4 -6 -7 -8 -26 -4 -17 2 -29 2 -26 -1 9 -9 -46 -35 -61 -29 -7 3 -15 1 -18 -4 -4 -6 -16 -10 -29 -10 -12 0 -28 -6 -35 -13 -11 -10 -12 -9 -6 1 6 11 3 12 -12 3 -11 -6 -23 -7 -27 -4 -3 3 -6 0 -6 -7 0 -10 -3 -11 -11 -3 -11 11 -39 7 -39 -6 0 -14 82 -11 148 4 37 9 117 41 178 70 93 45 126 68 197 135 48 45 102 103 121 130 l36 50 -143 -7 -142 -6 -49 -40 c-199 -157 -481 -186 -698 -71 -27 14 -53 22 -60 18 -6 -4 -8 -3 -5 3 4 6 -12 23 -34 39 -45 31 -130 120 -156 164 -9 16 -28 32 -42 35 -46 12 -231 42 -231 38z m55 -32 c3 -5 1 -12 -5 -16 -5 -3 -10 1 -10 9 0 18 6 21 15 7z m79 -172 c-3 -5 -10 -7 -15 -3 -5 3 -7 10 -3 15 3 5 10 7 15 3 5 -3 7 -10 3 -15z m56 -43 c0 -2 -7 -7 -16 -10 -8 -3 -12 -2 -9 4 6 10 25 14 25 6z" class=""></path>        <path d="M2167 162 c-34 -37 -8 -102 40 -102 21 0 53 38 53 63 0 49 -61 74 -93 39z m73 -22 c8 -14 8 -26 0 -40 -19 -35 -80 -20 -80 20 0 40 61 55 80 20z"></path> <path d="M2187 144 c-13 -13 -8 -46 7 -41 7 3 18 1 23 -4 5 -5 9 2 8 18 0 27 -22 42 -38 27z m28 -14 c3 -5 -1 -10 -10 -10 -9 0 -13 5 -10 10 3 6 8 10 10 10 2 0 7 -4 10 -10z"></path>  </g> </svg>