<?xml version="1.0" standalone="no"?>
<!DOCTYPE svg PUBLIC "-//W3C//DTD SVG 20010904//EN"
 "http://www.w3.org/TR/2001/REC-SVG-20010904/DTD/svg10.dtd">
<svg version="1.0" xmlns="http://www.w3.org/2000/svg"
 width="292.000000pt" height="172.000000pt" viewBox="0 0 292.000000 172.000000"
 preserveAspectRatio="xMidYMid meet">
<g transform="translate(0.000000,172.000000) scale(0.066667,-0.066667)"
fill="#ffffff" stroke="none">
<path d="M2099 2566 c-21 -7 -74 -13 -117 -14 -488 -11 -1010 -545 -1075
-1100 l-10 -85 -100 -9 c-313 -28 -751 -140 -790 -203 -13 -22 34 -128 55
-123 342 84 955 52 1926 -102 1104 -175 1833 -160 2291 49 88 40 100 50 92 77
-27 87 -37 101 -62 93 -119 -36 -436 -58 -656 -46 l-180 11 -1 204 c-2 640
-511 1210 -1101 1234 -60 3 -112 10 -116 16 -9 15 -105 13 -156 -2z m333 -340
c427 -106 733 -500 733 -945 0 -68 -6 -128 -13 -132 -8 -5 -293 31 -634 80
-625 90 -1034 136 -1208 136 -110 0 -107 -7 -65 156 133 522 661 836 1187 705z"/>
<path d="M968 853 c136 -440 668 -839 1106 -831 39 1 71 -4 71 -10 0 -7 20
-12 45 -12 25 0 45 6 45 12 0 7 52 13 116 14 313 4 678 217 908 530 l45 61
-216 -11 -215 -11 -74 -59 c-437 -345 -1116 -248 -1406 199 -53 83 -45 79
-230 113 -75 13 -151 28 -171 32 -32 8 -34 5 -24 -27z"/>
<path d="M3249 246 c-68 -67 12 -186 94 -140 25 14 41 38 44 65 10 80 -83 131
-138 75z m95 -28 c10 -12 15 -34 11 -49 -5 -20 -7 -19 -8 8 -1 20 -16 39 -36
48 -23 9 -26 13 -9 14 13 1 32 -9 42 -21z m-74 -42 c-1 -39 -4 -43 -15 -24 -8
14 -11 36 -6 49 14 37 21 29 21 -25z m53 -41 c5 -8 -2 -15 -15 -15 -12 0 -23
7 -23 15 0 8 6 15 14 15 8 0 18 -7 24 -15z"/>
</g>
</svg>
